<svg width="687" height="163" viewBox="0 0 687 163" fill="none" xmlns="http://www.w3.org/2000/svg">
<g clip-path="url(#clip0_6_671)">
<path d="M166.239 144.265L166.233 88.8416C166.233 85.1175 163.23 82.0961 159.54 82.0961C155.843 82.0961 152.834 85.1175 152.834 88.8416L152.811 144.668C152.811 144.668 152.888 147.821 150.791 148.602C150.791 148.602 148.8 149.719 145.969 146.812L84.9285 86.6011C82.8317 84.4687 79.7337 82 74.687 82C68.9176 82 64.9845 85.8983 64.2441 86.6612L1.98929 151.293C-1.23303 154.969 0.070116 158.825 1.61612 160.501C5.29454 164.508 9.98586 161.943 10.2524 161.775C25.3156 152.927 54.198 132.258 112.312 132.324L135.319 155.203C137.161 157.077 145.856 165.943 157.111 161.09C167.364 156.681 166.239 145.238 166.239 144.265ZM74.8529 95.1366L99.5712 119.902C72.7619 119.944 45.544 129.261 38.9571 131.891L74.8529 95.1366Z" fill="#111111"/>
<path d="M306.375 105.576C306.375 92.6017 296.045 82.084 283.309 82.084C283.144 82.084 208.462 82.1141 208.462 82.1141C194.388 82.1141 184.01 90.8117 184.01 107.006V155.546C184.01 159.312 187.013 162.369 190.697 162.369C194.393 162.369 197.403 159.312 197.403 155.546V129.056C228.151 129.056 261.043 135.447 295.073 161.06C296.193 161.901 301.542 165.078 305.102 160.844C308.277 157.071 306.197 152.692 303.348 150.308C289.908 139.099 267.524 129.056 267.524 129.056H282.208C294.943 129.062 306.375 118.557 306.375 105.576ZM197.408 115.391V106.976C197.426 103.6 198.534 95.7552 208.467 95.7552C208.467 95.7552 282.261 95.7372 282.421 95.7372C287.758 95.7372 292.982 99.7917 292.982 105.582C292.982 112.069 287.764 115.421 282.421 115.421C282.255 115.421 197.408 115.391 197.408 115.391Z" fill="#111111"/>
<path d="M539.235 82.0901L322.878 82.1261C319.181 82.1261 316.172 85.1535 316.172 88.8716C316.172 92.5958 319.181 95.6111 322.878 95.6111C322.878 95.6111 374.21 95.5691 374.601 95.5691C389.125 95.5691 391.287 106.904 391.287 112.862V155.798C391.287 159.516 394.284 162.543 397.986 162.543C401.671 162.543 404.686 159.522 404.686 155.798V112.862C404.686 100.398 400.492 95.5691 400.492 95.5691H539.235C542.92 95.5691 545.935 92.5417 545.935 88.8236C545.935 85.1114 542.92 82.0901 539.235 82.0901Z" fill="#111111"/>
<path d="M539.235 149.095L450.521 149.04C445.06 149.04 441.061 144.517 441.061 139.376C441.061 134.234 445.125 129.723 450.521 129.723L539.218 129.705C542.914 129.705 545.923 126.69 545.923 122.978C545.923 119.265 542.914 116.25 539.218 116.25C539.218 116.25 450.053 116.256 449.875 116.256C437.424 116.256 427.438 126.798 427.438 139.376C427.438 151.954 437.318 162.495 449.875 162.495L539.235 162.543C542.92 162.543 545.935 159.534 545.935 155.816C545.935 152.11 542.92 149.095 539.235 149.095Z" fill="#111111"/>
<path d="M681.195 149.082L587.049 126.93L682.35 95.2265C685.857 94.0732 687.805 90.2409 686.674 86.697C685.549 83.1651 681.118 81.2129 677.611 82.3662L575.309 116.07V88.8834C575.309 85.1653 572.157 82.1379 568.461 82.1379C564.771 82.1379 561.608 85.1593 561.608 88.8834V110.123C561.608 127.236 567.164 136.276 586.723 140.529L678.754 162.285C682.356 163.096 685.726 160.783 686.52 157.155C687.314 153.521 684.796 149.893 681.195 149.082Z" fill="#111111"/>
</g>
<path d="M302.356 31.3066C302.356 38.9971 295.691 42.8301 283.143 42.8301C276.673 42.8301 271.79 41.4141 268.47 39.0459C265.149 36.7266 263.465 33.5039 263.465 29.915H273.694C273.768 31.2822 274.207 32.7227 275.623 33.7725C277.039 34.8467 279.407 35.5791 283.24 35.5791C286.39 35.5791 288.465 35.1152 289.759 34.4072C291.028 33.6992 291.517 32.6982 291.517 31.6484C291.517 30.623 291.102 29.8418 290.198 29.2559C289.295 28.6699 287.928 28.2549 285.999 27.9131L275.77 26.0332C271.692 25.2764 268.885 23.958 267.103 22.127C265.32 20.3203 264.515 18.001 264.515 15.291C264.515 13.4355 264.979 11.6045 266.102 9.91992C267.249 8.28418 269.056 6.86816 271.766 5.84277C274.476 4.81738 278.04 4.23145 282.703 4.23145C289.246 4.23145 293.909 5.57422 296.985 7.7959C300.062 10.042 301.551 13.167 301.746 16.6826H292.2C291.932 15.1934 291.37 13.8994 289.954 12.9717C288.538 12.0439 286.292 11.5068 282.776 11.5068C279.822 11.5068 277.967 12.0439 276.868 12.752C275.77 13.46 275.379 14.4365 275.379 15.2422C275.379 16.2432 275.745 17.0244 276.624 17.6104C277.479 18.2207 278.821 18.6846 280.848 19.002L289.686 20.5645C294.178 21.4189 297.352 22.5664 299.402 24.2998C301.453 26.0332 302.356 28.2793 302.356 31.2822V31.3066ZM319.352 42H308.586V5.08594H319.352V42ZM348.579 28.3525V21.8584H369.795L369.697 25.96C369.697 26.3262 369.673 26.5215 369.649 26.8877C369.331 30.9648 367.403 34.9443 363.911 37.9229C360.396 40.9014 355.342 42.8301 348.775 42.8301C341.182 42.8301 335.518 41.0967 331.734 38.0449C327.949 34.9932 326.094 30.5986 326.094 25.3252V21.7852C326.094 16.4385 327.998 12.0439 331.807 8.96777C335.591 5.94043 341.255 4.23145 348.799 4.23145C354.732 4.23145 359.517 5.52539 363.057 7.94238C366.572 10.3838 368.843 13.9482 369.746 18.4648H359.321C358.272 13.9727 354.561 11.5312 348.75 11.5312C345.454 11.5312 342.476 12.3613 340.327 14.0215C338.13 15.7061 336.812 18.2207 336.812 21.6143V25.5449C336.812 28.8652 338.13 31.3799 340.279 33.04C342.427 34.7246 345.405 35.5547 348.726 35.5547C352.437 35.5547 355.147 34.7246 356.978 33.4307C358.809 32.1367 359.81 30.3301 360.078 28.3525H348.579ZM373.998 25.3252V21.8096C373.998 16.4385 375.902 12.0439 379.735 8.99219C383.519 5.94043 389.183 4.23145 396.727 4.23145C404.271 4.23145 409.935 5.98926 413.744 9.04102C417.528 12.0928 419.432 16.5117 419.432 21.7852V25.3008C419.432 30.5742 417.528 34.9688 413.744 38.0205C409.935 41.0723 404.247 42.8301 396.703 42.8301C389.183 42.8301 383.495 41.1211 379.711 38.0693C375.902 35.0176 374.022 30.6475 374.022 25.3008L373.998 25.3252ZM396.703 35.1885C399.95 35.1885 402.929 34.3828 405.077 32.7715C407.225 31.1602 408.544 28.7676 408.544 25.4717V21.6387C408.544 18.3184 407.225 15.8525 405.077 14.2412C402.929 12.6299 399.95 11.873 396.703 11.873C393.456 11.873 390.502 12.6543 388.378 14.2656C386.229 15.877 384.911 18.3184 384.911 21.6387L384.935 25.4717C384.935 28.7676 386.254 31.1602 388.402 32.7715C390.526 34.3828 393.456 35.1885 396.703 35.1885Z" fill="black"/>
<path d="M268.47 39.0459L268.76 38.6388L268.756 38.636L268.47 39.0459ZM263.465 29.915V29.415H262.965V29.915H263.465ZM273.694 29.915L274.194 29.8883L274.168 29.415H273.694V29.915ZM275.623 33.7725L275.925 33.3741L275.921 33.3708L275.623 33.7725ZM289.759 34.4072L289.999 34.8459L290.002 34.8439L289.759 34.4072ZM285.999 27.9131L285.909 28.4049L285.912 28.4054L285.999 27.9131ZM275.77 26.0332L275.678 26.5248L275.679 26.525L275.77 26.0332ZM267.103 22.127L267.461 21.7782L267.458 21.7758L267.103 22.127ZM266.102 9.91992L265.692 9.6327L265.686 9.64257L266.102 9.91992ZM296.985 7.7959L297.28 7.39208L297.278 7.39056L296.985 7.7959ZM301.746 16.6826V17.1826H302.275L302.245 16.6549L301.746 16.6826ZM292.2 16.6826L291.708 16.7713L291.782 17.1826H292.2V16.6826ZM276.624 17.6104L276.915 17.2035L276.908 17.1988L276.901 17.1943L276.624 17.6104ZM280.848 19.002L280.935 18.5095L280.925 18.508L280.848 19.002ZM289.686 20.5645L289.779 20.0732L289.773 20.0721L289.686 20.5645ZM301.856 31.3066C301.856 34.9752 300.283 37.6927 297.2 39.5223C294.079 41.3746 289.381 42.3301 283.143 42.3301V43.3301C289.452 43.3301 294.362 42.3691 297.71 40.3823C301.097 38.3727 302.856 35.3286 302.856 31.3066H301.856ZM283.143 42.3301C276.739 42.3301 271.969 40.9279 268.76 38.6388L268.179 39.453C271.611 41.9003 276.606 43.3301 283.143 43.3301V42.3301ZM268.756 38.636C265.56 36.4033 263.965 33.3289 263.965 29.915H262.965C262.965 33.6789 264.739 37.0498 268.183 39.4558L268.756 38.636ZM263.465 30.415H273.694V29.415H263.465V30.415ZM273.195 29.9418C273.273 31.4001 273.75 33.0061 275.325 34.1741L275.921 33.3708C274.664 32.4392 274.262 31.1644 274.194 29.8883L273.195 29.9418ZM275.321 34.1708C276.861 35.3394 279.357 36.0791 283.24 36.0791V35.0791C279.457 35.0791 277.217 34.3539 275.925 33.3741L275.321 34.1708ZM283.24 36.0791C286.426 36.0791 288.598 35.6122 289.999 34.8459L289.519 33.9686C288.331 34.6183 286.354 35.0791 283.24 35.0791V36.0791ZM290.002 34.8439C291.425 34.0504 292.017 32.8853 292.017 31.6484H291.017C291.017 32.5112 290.632 33.348 289.515 33.9705L290.002 34.8439ZM292.017 31.6484C292.017 31.0663 291.898 30.5296 291.635 30.0477C291.372 29.5661 290.979 29.1664 290.47 28.8364L289.926 29.6753C290.321 29.9312 290.587 30.2152 290.757 30.527C290.928 30.8386 291.017 31.2051 291.017 31.6484H292.017ZM290.47 28.8364C289.478 28.1927 288.026 27.7646 286.086 27.4208L285.912 28.4054C287.829 28.7452 289.112 29.1471 289.926 29.6753L290.47 28.8364ZM286.089 27.4213L275.86 25.5414L275.679 26.525L285.909 28.4049L286.089 27.4213ZM275.861 25.5416C271.837 24.7947 269.143 23.5064 267.461 21.7782L266.744 22.4757C268.627 24.4096 271.548 25.7581 275.678 26.5248L275.861 25.5416ZM267.458 21.7758C265.785 20.0796 265.015 17.8953 265.015 15.291H264.015C264.015 18.1066 264.855 20.561 266.747 22.4781L267.458 21.7758ZM265.015 15.291C265.015 13.5224 265.456 11.7904 266.518 10.1973L265.686 9.64257C264.501 11.4186 264.015 13.3487 264.015 15.291H265.015ZM266.511 10.2071C267.591 8.66785 269.308 7.3071 271.943 6.31042L271.589 5.37513C268.803 6.42923 266.907 7.90051 265.692 9.63278L266.511 10.2071ZM271.943 6.31042C274.578 5.31312 278.078 4.73145 282.703 4.73145V3.73145C278.002 3.73145 274.373 4.32164 271.589 5.37513L271.943 6.31042ZM282.703 4.73145C289.186 4.73145 293.732 6.06318 296.693 8.20124L297.278 7.39056C294.086 5.08526 289.306 3.73145 282.703 3.73145V4.73145ZM296.691 8.19971C299.635 10.3497 301.059 13.3309 301.247 16.7104L302.245 16.6549C302.042 13.0031 300.488 9.73426 297.28 7.39209L296.691 8.19971ZM301.746 16.1826H292.2V17.1826H301.746V16.1826ZM292.692 16.5939C292.41 15.0263 291.8 13.5831 290.228 12.5534L289.68 13.3899C290.941 14.2157 291.454 15.3604 291.708 16.7713L292.692 16.5939ZM290.228 12.5534C288.69 11.5458 286.326 11.0068 282.776 11.0068V12.0068C286.258 12.0068 288.386 12.5421 289.68 13.3899L290.228 12.5534ZM282.776 11.0068C279.773 11.0068 277.808 11.5512 276.597 12.3317L277.139 13.1722C278.125 12.5367 279.872 12.0068 282.776 12.0068V11.0068ZM276.597 12.3317C275.354 13.1327 274.879 14.2683 274.879 15.2422H275.879C275.879 14.6047 276.185 13.7873 277.139 13.1722L276.597 12.3317ZM274.879 15.2422C274.879 15.8044 274.982 16.3314 275.227 16.8096C275.472 17.2895 275.846 17.6927 276.347 18.0264L276.901 17.1943C276.523 16.942 276.274 16.6617 276.117 16.3542C275.959 16.0451 275.879 15.681 275.879 15.2422H274.879ZM276.333 18.0172C277.283 18.6954 278.718 19.1745 280.77 19.4959L280.925 18.508C278.925 18.1947 277.674 17.746 276.915 17.2035L276.333 18.0172ZM280.761 19.4943L289.598 21.0568L289.773 20.0721L280.935 18.5096L280.761 19.4943ZM289.592 21.0556C294.065 21.9064 297.131 23.0348 299.08 24.6817L299.725 23.9179C297.572 22.098 294.291 20.9315 289.779 20.0733L289.592 21.0556ZM299.08 24.6817C300.997 26.3025 301.856 28.3969 301.856 31.2822H302.856C302.856 28.1617 301.909 25.7639 299.725 23.9179L299.08 24.6817ZM301.856 31.2822V31.3066H302.856V31.2822H301.856ZM319.352 42V42.5H319.852V42H319.352ZM308.586 42H308.086V42.5H308.586V42ZM308.586 5.08594V4.58594H308.086V5.08594H308.586ZM319.352 5.08594H319.852V4.58594H319.352V5.08594ZM319.352 41.5H308.586V42.5H319.352V41.5ZM309.086 42V5.08594H308.086V42H309.086ZM308.586 5.58594H319.352V4.58594H308.586V5.58594ZM318.852 5.08594V42H319.852V5.08594H318.852ZM348.579 28.3525H348.079V28.8525H348.579V28.3525ZM348.579 21.8584V21.3584H348.079V21.8584H348.579ZM369.795 21.8584L370.295 21.8703L370.307 21.3584H369.795V21.8584ZM369.697 25.96L369.197 25.9481V25.96H369.697ZM369.649 26.8877L370.147 26.9265L370.148 26.921L369.649 26.8877ZM363.911 37.9229L364.235 38.3043L364.236 38.3032L363.911 37.9229ZM331.807 8.96777L331.494 8.57733L331.493 8.5788L331.807 8.96777ZM363.057 7.94238L363.342 7.53168L363.339 7.52945L363.057 7.94238ZM369.746 18.4648V18.9648H370.356L370.237 18.3668L369.746 18.4648ZM359.321 18.4648L358.835 18.5786L358.925 18.9648H359.321V18.4648ZM340.327 14.0215L340.632 14.4183L340.633 14.4171L340.327 14.0215ZM340.279 33.04L340.587 32.6466L340.584 32.6444L340.279 33.04ZM360.078 28.3525L360.574 28.4198L360.651 27.8525H360.078V28.3525ZM349.079 28.3525V21.8584H348.079V28.3525H349.079ZM348.579 22.3584H369.795V21.3584H348.579V22.3584ZM369.295 21.8465L369.198 25.9481L370.197 25.9719L370.295 21.8703L369.295 21.8465ZM369.197 25.96C369.197 26.304 369.176 26.468 369.15 26.8544L370.148 26.921C370.171 26.575 370.197 26.3483 370.197 25.96H369.197ZM369.15 26.8489C368.843 30.7929 366.977 34.6497 363.587 37.5425L364.236 38.3032C367.828 35.239 369.819 31.1368 370.147 26.9265L369.15 26.8489ZM363.588 37.5414C360.176 40.4323 355.242 42.3301 348.775 42.3301V43.3301C355.442 43.3301 360.616 41.3704 364.235 38.3043L363.588 37.5414ZM348.775 42.3301C341.25 42.3301 335.713 40.6115 332.047 37.6557L331.42 38.4341C335.323 41.5818 341.113 43.3301 348.775 43.3301V42.3301ZM332.047 37.6557C328.399 34.7138 326.594 30.4729 326.594 25.3252H325.594C325.594 30.7244 327.499 35.2726 331.42 38.4341L332.047 37.6557ZM326.594 25.3252V21.7852H325.594V25.3252H326.594ZM326.594 21.7852C326.594 16.5674 328.446 12.3249 332.121 9.35674L331.493 8.5788C327.55 11.763 325.594 16.3095 325.594 21.7852H326.594ZM332.119 9.35821C335.784 6.42607 341.322 4.73145 348.799 4.73145V3.73145C341.188 3.73145 335.398 5.45479 331.494 8.57734L332.119 9.35821ZM348.799 4.73145C354.663 4.73145 359.341 6.01062 362.775 8.35532L363.339 7.52945C359.693 5.04016 354.801 3.73145 348.799 3.73145V4.73145ZM362.772 8.35307C366.173 10.715 368.376 14.163 369.256 18.5629L370.237 18.3668C369.31 13.7335 366.972 10.0525 363.342 7.5317L362.772 8.35307ZM369.746 17.9648H359.321V18.9648H369.746V17.9648ZM359.808 18.3511C359.256 15.9884 357.995 14.1423 356.095 12.8955C354.206 11.655 351.721 11.0312 348.75 11.0312V12.0312C351.59 12.0312 353.866 12.6282 355.547 13.7315C357.218 14.8284 358.337 16.4491 358.835 18.5786L359.808 18.3511ZM348.75 11.0312C345.378 11.0312 342.281 11.8797 340.022 13.6258L340.633 14.4171C342.67 12.8429 345.531 12.0312 348.75 12.0312V11.0312ZM340.023 13.6247C337.695 15.4093 336.312 18.0744 336.312 21.6143H337.312C337.312 18.367 338.565 16.0028 340.632 14.4183L340.023 13.6247ZM336.312 21.6143V25.5449H337.312V21.6143H336.312ZM336.312 25.5449C336.312 29.0122 337.696 31.6761 339.973 33.4357L340.584 32.6444C338.564 31.0836 337.312 28.7183 337.312 25.5449H336.312ZM339.97 33.4335C342.231 35.2064 345.33 36.0547 348.726 36.0547V35.0547C345.481 35.0547 342.623 34.2428 340.587 32.6466L339.97 33.4335ZM348.726 36.0547C352.507 36.0547 355.327 35.2092 357.266 33.839L356.689 33.0223C354.966 34.24 352.367 35.0547 348.726 35.0547V36.0547ZM357.266 33.839C359.215 32.4617 360.287 30.529 360.574 28.4198L359.583 28.2853C359.332 30.1312 358.402 31.8118 356.689 33.0223L357.266 33.839ZM360.078 27.8525H348.579V28.8525H360.078V27.8525ZM373.998 25.3252H373.498V26.5323L374.351 25.6787L373.998 25.3252ZM379.735 8.99219L380.047 9.38336L380.049 9.38139L379.735 8.99219ZM413.744 9.04102L414.058 8.65181L414.057 8.65083L413.744 9.04102ZM413.744 38.0205L414.057 38.4107L414.058 38.4097L413.744 38.0205ZM379.711 38.0693L380.025 37.6801L380.023 37.6791L379.711 38.0693ZM374.022 25.3008H374.522V24.0937L373.669 24.9472L374.022 25.3008ZM388.378 14.2656L388.678 14.6656L388.68 14.664L388.378 14.2656ZM384.911 21.6387H384.411L384.411 21.6419L384.911 21.6387ZM384.935 25.4717H385.435L385.435 25.4685L384.935 25.4717ZM388.402 32.7715L388.704 32.3731L388.702 32.3715L388.402 32.7715ZM374.498 25.3252V21.8096H373.498V25.3252H374.498ZM374.498 21.8096C374.498 16.5668 376.35 12.3263 380.047 9.38335L379.424 8.60102C375.454 11.7616 373.498 16.3101 373.498 21.8096H374.498ZM380.049 9.38139C383.714 6.42611 389.251 4.73145 396.727 4.73145V3.73145C389.116 3.73145 383.325 5.45475 379.421 8.60298L380.049 9.38139ZM396.727 4.73145C404.2 4.73145 409.74 6.47325 413.431 9.43121L414.057 8.65083C410.131 5.50526 404.342 3.73145 396.727 3.73145V4.73145ZM413.43 9.43022C417.08 12.3738 418.932 16.6404 418.932 21.7852H419.932C419.932 16.383 417.976 11.8118 414.058 8.65181L413.43 9.43022ZM418.932 21.7852V25.3008H419.932V21.7852H418.932ZM418.932 25.3008C418.932 30.4447 417.081 34.6873 413.43 37.6313L414.058 38.4097C417.976 35.2502 419.932 30.7037 419.932 25.3008H418.932ZM413.431 37.6303C409.74 40.5881 404.176 42.3301 396.703 42.3301V43.3301C404.317 43.3301 410.131 41.5565 414.057 38.4107L413.431 37.6303ZM396.703 42.3301C389.25 42.3301 383.689 40.6353 380.025 37.6801L379.397 38.4585C383.301 41.6069 389.116 43.3301 396.703 43.3301V42.3301ZM380.023 37.6791C376.351 34.7365 374.522 30.52 374.522 25.3008H373.522C373.522 30.7749 375.453 35.2987 379.398 38.4595L380.023 37.6791ZM373.669 24.9472L373.644 24.9716L374.351 25.6787L374.376 25.6543L373.669 24.9472ZM396.703 35.6885C400.024 35.6885 403.118 34.8655 405.377 33.1715L404.777 32.3715C402.739 33.9002 399.876 34.6885 396.703 34.6885V35.6885ZM405.377 33.1715C407.654 31.4635 409.044 28.9212 409.044 25.4717H408.044C408.044 28.614 406.796 30.8568 404.777 32.3715L405.377 33.1715ZM409.044 25.4717V21.6387H408.044V25.4717H409.044ZM409.044 21.6387C409.044 18.17 407.658 15.5522 405.377 13.8412L404.777 14.6412C406.792 16.1528 408.044 18.4667 408.044 21.6387H409.044ZM405.377 13.8412C403.114 12.1444 400.018 11.373 396.703 11.373V12.373C399.882 12.373 402.743 13.1154 404.777 14.6412L405.377 13.8412ZM396.703 11.373C393.385 11.373 390.313 12.1703 388.076 13.8673L388.68 14.664C390.691 13.1383 393.527 12.373 396.703 12.373V11.373ZM388.078 13.8656C385.797 15.5758 384.411 18.1685 384.411 21.6387H385.411C385.411 18.4682 386.661 16.1781 388.678 14.6656L388.078 13.8656ZM384.411 21.6419L384.435 25.4749L385.435 25.4685L385.411 21.6355L384.411 21.6419ZM384.435 25.4717C384.435 28.9212 385.825 31.4635 388.102 33.1715L388.702 32.3715C386.683 30.8568 385.435 28.614 385.435 25.4717H384.435ZM388.1 33.1698C390.334 34.865 393.381 35.6885 396.703 35.6885V34.6885C393.531 34.6885 390.718 33.9007 388.704 32.3731L388.1 33.1698Z" fill="black"/>
<defs>
<clipPath id="clip0_6_671">
<rect width="687" height="81" fill="white" transform="translate(0 82)"/>
</clipPath>
</defs>
</svg>
