<svg width="308" height="32" viewBox="0 0 308 32" fill="none" xmlns="http://www.w3.org/2000/svg">
<path d="M176.852 14.112C176.105 14.112 175.415 13.9907 174.78 13.748C174.155 13.496 173.609 13.146 173.142 12.698C172.685 12.2407 172.325 11.7087 172.064 11.102C171.803 10.4953 171.672 9.828 171.672 9.1C171.672 8.372 171.803 7.70467 172.064 7.098C172.325 6.49133 172.689 5.964 173.156 5.516C173.623 5.05867 174.169 4.70867 174.794 4.466C175.429 4.214 176.119 4.088 176.866 4.088C177.622 4.088 178.317 4.21867 178.952 4.48C179.596 4.732 180.142 5.11 180.59 5.614L179.68 6.496C179.307 6.104 178.887 5.81467 178.42 5.628C177.953 5.432 177.454 5.334 176.922 5.334C176.371 5.334 175.858 5.42733 175.382 5.614C174.915 5.80067 174.509 6.062 174.164 6.398C173.819 6.734 173.548 7.13533 173.352 7.602C173.165 8.05933 173.072 8.55867 173.072 9.1C173.072 9.64133 173.165 10.1453 173.352 10.612C173.548 11.0693 173.819 11.466 174.164 11.802C174.509 12.138 174.915 12.3993 175.382 12.586C175.858 12.7727 176.371 12.866 176.922 12.866C177.454 12.866 177.953 12.7727 178.42 12.586C178.887 12.39 179.307 12.0913 179.68 11.69L180.59 12.572C180.142 13.076 179.596 13.4587 178.952 13.72C178.317 13.9813 177.617 14.112 176.852 14.112ZM181.971 14V3.612H183.315V14H181.971ZM185.461 14V6.58H186.805V14H185.461ZM186.133 5.152C185.872 5.152 185.653 5.068 185.475 4.9C185.307 4.732 185.223 4.52667 185.223 4.284C185.223 4.032 185.307 3.822 185.475 3.654C185.653 3.486 185.872 3.402 186.133 3.402C186.395 3.402 186.609 3.486 186.777 3.654C186.955 3.81267 187.043 4.01333 187.043 4.256C187.043 4.508 186.959 4.72267 186.791 4.9C186.623 5.068 186.404 5.152 186.133 5.152ZM192.256 14.084C191.462 14.084 190.762 13.9207 190.155 13.594C189.558 13.2673 189.091 12.8193 188.755 12.25C188.429 11.6807 188.265 11.0273 188.265 10.29C188.265 9.55267 188.424 8.89933 188.741 8.33C189.068 7.76067 189.511 7.31733 190.071 7C190.641 6.67333 191.28 6.51 191.99 6.51C192.708 6.51 193.343 6.66867 193.894 6.986C194.444 7.30333 194.874 7.75133 195.181 8.33C195.499 8.89933 195.658 9.56667 195.658 10.332C195.658 10.388 195.653 10.4533 195.643 10.528C195.643 10.6027 195.639 10.6727 195.63 10.738H189.315V9.772H194.929L194.384 10.108C194.393 9.632 194.295 9.20733 194.09 8.834C193.884 8.46067 193.6 8.17133 193.235 7.966C192.881 7.75133 192.466 7.644 191.99 7.644C191.523 7.644 191.107 7.75133 190.743 7.966C190.379 8.17133 190.095 8.46533 189.889 8.848C189.684 9.22133 189.581 9.65067 189.581 10.136V10.36C189.581 10.8547 189.693 11.298 189.917 11.69C190.151 12.0727 190.473 12.3713 190.884 12.586C191.294 12.8007 191.765 12.908 192.297 12.908C192.736 12.908 193.133 12.8333 193.488 12.684C193.852 12.5347 194.169 12.3107 194.439 12.012L195.181 12.88C194.845 13.272 194.425 13.5707 193.921 13.776C193.427 13.9813 192.871 14.084 192.256 14.084ZM201.066 6.51C201.672 6.51 202.204 6.62667 202.662 6.86C203.128 7.09333 203.492 7.448 203.754 7.924C204.015 8.4 204.146 9.002 204.146 9.73V14H202.802V9.884C202.802 9.16533 202.624 8.624 202.27 8.26C201.924 7.896 201.434 7.714 200.8 7.714C200.324 7.714 199.908 7.80733 199.554 7.994C199.199 8.18067 198.924 8.456 198.728 8.82C198.541 9.184 198.448 9.63667 198.448 10.178V14H197.104V6.58H198.392V8.582L198.182 8.05C198.424 7.56467 198.798 7.18667 199.302 6.916C199.806 6.64533 200.394 6.51 201.066 6.51ZM208.761 14.084C208.014 14.084 207.436 13.8833 207.025 13.482C206.614 13.0807 206.409 12.5067 206.409 11.76V4.956H207.753V11.704C207.753 12.1053 207.851 12.4133 208.047 12.628C208.252 12.8427 208.542 12.95 208.915 12.95C209.335 12.95 209.685 12.8333 209.965 12.6L210.385 13.566C210.18 13.7433 209.932 13.874 209.643 13.958C209.363 14.042 209.069 14.084 208.761 14.084ZM205.149 7.686V6.58H209.881V7.686H205.149ZM214.648 14.084C213.855 14.084 213.155 13.9207 212.548 13.594C211.951 13.2673 211.484 12.8193 211.148 12.25C210.821 11.6807 210.658 11.0273 210.658 10.29C210.658 9.55267 210.817 8.89933 211.134 8.33C211.461 7.76067 211.904 7.31733 212.464 7C213.033 6.67333 213.673 6.51 214.382 6.51C215.101 6.51 215.735 6.66867 216.286 6.986C216.837 7.30333 217.266 7.75133 217.574 8.33C217.891 8.89933 218.05 9.56667 218.05 10.332C218.05 10.388 218.045 10.4533 218.036 10.528C218.036 10.6027 218.031 10.6727 218.022 10.738H211.708V9.772H217.322L216.776 10.108C216.785 9.632 216.687 9.20733 216.482 8.834C216.277 8.46067 215.992 8.17133 215.628 7.966C215.273 7.75133 214.858 7.644 214.382 7.644C213.915 7.644 213.5 7.75133 213.136 7.966C212.772 8.17133 212.487 8.46533 212.282 8.848C212.077 9.22133 211.974 9.65067 211.974 10.136V10.36C211.974 10.8547 212.086 11.298 212.31 11.69C212.543 12.0727 212.865 12.3713 213.276 12.586C213.687 12.8007 214.158 12.908 214.69 12.908C215.129 12.908 215.525 12.8333 215.88 12.684C216.244 12.5347 216.561 12.3107 216.832 12.012L217.574 12.88C217.238 13.272 216.818 13.5707 216.314 13.776C215.819 13.9813 215.264 14.084 214.648 14.084ZM221.624 14.084C221.008 14.084 220.42 14 219.86 13.832C219.309 13.664 218.875 13.4587 218.558 13.216L219.118 12.152C219.435 12.3667 219.827 12.5487 220.294 12.698C220.761 12.8473 221.237 12.922 221.722 12.922C222.347 12.922 222.795 12.8333 223.066 12.656C223.346 12.4787 223.486 12.2313 223.486 11.914C223.486 11.6807 223.402 11.4987 223.234 11.368C223.066 11.2373 222.842 11.1393 222.562 11.074C222.291 11.0087 221.988 10.9527 221.652 10.906C221.316 10.85 220.98 10.7847 220.644 10.71C220.308 10.626 220 10.514 219.72 10.374C219.44 10.2247 219.216 10.024 219.048 9.772C218.88 9.51067 218.796 9.16533 218.796 8.736C218.796 8.288 218.922 7.896 219.174 7.56C219.426 7.224 219.781 6.96733 220.238 6.79C220.705 6.60333 221.255 6.51 221.89 6.51C222.375 6.51 222.865 6.57067 223.36 6.692C223.864 6.804 224.275 6.96733 224.592 7.182L224.018 8.246C223.682 8.022 223.332 7.868 222.968 7.784C222.604 7.7 222.24 7.658 221.876 7.658C221.288 7.658 220.849 7.756 220.56 7.952C220.271 8.13867 220.126 8.38133 220.126 8.68C220.126 8.932 220.21 9.128 220.378 9.268C220.555 9.39867 220.779 9.50133 221.05 9.576C221.33 9.65067 221.638 9.716 221.974 9.772C222.31 9.81867 222.646 9.884 222.982 9.968C223.318 10.0427 223.621 10.15 223.892 10.29C224.172 10.43 224.396 10.626 224.564 10.878C224.741 11.13 224.83 11.466 224.83 11.886C224.83 12.334 224.699 12.7213 224.438 13.048C224.177 13.3747 223.808 13.6313 223.332 13.818C222.856 13.9953 222.287 14.084 221.624 14.084ZM175.242 31.112C174.533 31.112 173.893 30.9533 173.324 30.636C172.755 30.3093 172.302 29.8567 171.966 29.278C171.639 28.6993 171.476 28.018 171.476 27.234C171.476 26.4407 171.639 25.7547 171.966 25.176C172.302 24.5973 172.755 24.1493 173.324 23.832C173.893 23.5147 174.533 23.356 175.242 23.356C175.877 23.356 176.432 23.496 176.908 23.776C177.384 24.056 177.753 24.4807 178.014 25.05C178.275 25.6193 178.406 26.3473 178.406 27.234C178.406 28.1113 178.28 28.8393 178.028 29.418C177.776 29.9873 177.412 30.412 176.936 30.692C176.469 30.972 175.905 31.112 175.242 31.112ZM175.62 29.32C175.975 29.32 176.297 29.236 176.586 29.068C176.875 28.9 177.104 28.662 177.272 28.354C177.449 28.0367 177.538 27.6633 177.538 27.234C177.538 26.7953 177.449 26.422 177.272 26.114C177.104 25.806 176.875 25.568 176.586 25.4C176.297 25.232 175.975 25.148 175.62 25.148C175.256 25.148 174.929 25.232 174.64 25.4C174.351 25.568 174.117 25.806 173.94 26.114C173.772 26.422 173.688 26.7953 173.688 27.234C173.688 27.6633 173.772 28.0367 173.94 28.354C174.117 28.662 174.351 28.9 174.64 29.068C174.929 29.236 175.256 29.32 175.62 29.32ZM177.594 31V29.46L177.636 27.22L177.496 24.994V20.612H179.68V31H177.594ZM185.019 31.112C184.161 31.112 183.405 30.944 182.751 30.608C182.107 30.272 181.608 29.8147 181.253 29.236C180.899 28.648 180.721 27.9807 180.721 27.234C180.721 26.478 180.894 25.8107 181.239 25.232C181.594 24.644 182.075 24.1867 182.681 23.86C183.288 23.524 183.974 23.356 184.739 23.356C185.477 23.356 186.139 23.5147 186.727 23.832C187.325 24.14 187.796 24.588 188.141 25.176C188.487 25.7547 188.659 26.45 188.659 27.262C188.659 27.346 188.655 27.444 188.645 27.556C188.636 27.6587 188.627 27.7567 188.617 27.85H182.499V26.576H187.469L186.629 26.954C186.629 26.562 186.55 26.2213 186.391 25.932C186.233 25.6427 186.013 25.4187 185.733 25.26C185.453 25.092 185.127 25.008 184.753 25.008C184.38 25.008 184.049 25.092 183.759 25.26C183.479 25.4187 183.26 25.6473 183.101 25.946C182.943 26.2353 182.863 26.5807 182.863 26.982V27.318C182.863 27.7287 182.952 28.0927 183.129 28.41C183.316 28.718 183.573 28.956 183.899 29.124C184.235 29.2827 184.627 29.362 185.075 29.362C185.477 29.362 185.827 29.3013 186.125 29.18C186.433 29.0587 186.713 28.8767 186.965 28.634L188.127 29.894C187.782 30.286 187.348 30.5893 186.825 30.804C186.303 31.0093 185.701 31.112 185.019 31.112ZM192.927 31.112C192.218 31.112 191.579 30.9533 191.009 30.636C190.44 30.3093 189.987 29.8567 189.651 29.278C189.325 28.6993 189.161 28.018 189.161 27.234C189.161 26.4407 189.325 25.7547 189.651 25.176C189.987 24.5973 190.44 24.1493 191.009 23.832C191.579 23.5147 192.218 23.356 192.927 23.356C193.562 23.356 194.117 23.496 194.593 23.776C195.069 24.056 195.438 24.4807 195.699 25.05C195.961 25.6193 196.091 26.3473 196.091 27.234C196.091 28.1113 195.965 28.8393 195.713 29.418C195.461 29.9873 195.097 30.412 194.621 30.692C194.155 30.972 193.59 31.112 192.927 31.112ZM193.305 29.32C193.66 29.32 193.982 29.236 194.271 29.068C194.561 28.9 194.789 28.662 194.957 28.354C195.135 28.0367 195.223 27.6633 195.223 27.234C195.223 26.7953 195.135 26.422 194.957 26.114C194.789 25.806 194.561 25.568 194.271 25.4C193.982 25.232 193.66 25.148 193.305 25.148C192.941 25.148 192.615 25.232 192.325 25.4C192.036 25.568 191.803 25.806 191.625 26.114C191.457 26.422 191.373 26.7953 191.373 27.234C191.373 27.6633 191.457 28.0367 191.625 28.354C191.803 28.662 192.036 28.9 192.325 29.068C192.615 29.236 192.941 29.32 193.305 29.32ZM195.279 31V29.46L195.321 27.22L195.181 24.994V20.612H197.365V31H195.279ZM198.967 31V23.468H201.151V31H198.967ZM200.059 22.418C199.657 22.418 199.331 22.3013 199.079 22.068C198.827 21.8347 198.701 21.5453 198.701 21.2C198.701 20.8547 198.827 20.5653 199.079 20.332C199.331 20.0987 199.657 19.982 200.059 19.982C200.46 19.982 200.787 20.094 201.039 20.318C201.291 20.5327 201.417 20.8127 201.417 21.158C201.417 21.522 201.291 21.8253 201.039 22.068C200.796 22.3013 200.469 22.418 200.059 22.418ZM206.398 31.112C205.586 31.112 204.862 30.9487 204.228 30.622C203.593 30.286 203.094 29.824 202.73 29.236C202.375 28.648 202.198 27.9807 202.198 27.234C202.198 26.478 202.375 25.8107 202.73 25.232C203.094 24.644 203.593 24.1867 204.228 23.86C204.862 23.524 205.586 23.356 206.398 23.356C207.191 23.356 207.882 23.524 208.47 23.86C209.058 24.1867 209.492 24.658 209.772 25.274L208.078 26.184C207.882 25.8293 207.634 25.568 207.336 25.4C207.046 25.232 206.729 25.148 206.384 25.148C206.01 25.148 205.674 25.232 205.376 25.4C205.077 25.568 204.839 25.806 204.662 26.114C204.494 26.422 204.41 26.7953 204.41 27.234C204.41 27.6727 204.494 28.046 204.662 28.354C204.839 28.662 205.077 28.9 205.376 29.068C205.674 29.236 206.01 29.32 206.384 29.32C206.729 29.32 207.046 29.2407 207.336 29.082C207.634 28.914 207.882 28.648 208.078 28.284L209.772 29.208C209.492 29.8147 209.058 30.286 208.47 30.622C207.882 30.9487 207.191 31.112 206.398 31.112ZM215.229 31V29.53L215.089 29.208V26.576C215.089 26.1093 214.945 25.7453 214.655 25.484C214.375 25.2227 213.941 25.092 213.353 25.092C212.952 25.092 212.555 25.1573 212.163 25.288C211.781 25.4093 211.454 25.5773 211.183 25.792L210.399 24.266C210.81 23.9767 211.305 23.7527 211.883 23.594C212.462 23.4353 213.05 23.356 213.647 23.356C214.795 23.356 215.687 23.6267 216.321 24.168C216.956 24.7093 217.273 25.554 217.273 26.702V31H215.229ZM212.933 31.112C212.345 31.112 211.841 31.014 211.421 30.818C211.001 30.6127 210.679 30.3373 210.455 29.992C210.231 29.6467 210.119 29.2593 210.119 28.83C210.119 28.382 210.227 27.99 210.441 27.654C210.665 27.318 211.015 27.0567 211.491 26.87C211.967 26.674 212.588 26.576 213.353 26.576H215.355V27.85H213.591C213.078 27.85 212.723 27.934 212.527 28.102C212.341 28.27 212.247 28.48 212.247 28.732C212.247 29.012 212.355 29.236 212.569 29.404C212.793 29.5627 213.097 29.642 213.479 29.642C213.843 29.642 214.17 29.558 214.459 29.39C214.749 29.2127 214.959 28.956 215.089 28.62L215.425 29.628C215.267 30.1133 214.977 30.482 214.557 30.734C214.137 30.986 213.596 31.112 212.933 31.112ZM222.118 31.112C221.409 31.112 220.77 30.9533 220.2 30.636C219.631 30.3093 219.178 29.8567 218.842 29.278C218.516 28.6993 218.352 28.018 218.352 27.234C218.352 26.4407 218.516 25.7547 218.842 25.176C219.178 24.5973 219.631 24.1493 220.2 23.832C220.77 23.5147 221.409 23.356 222.118 23.356C222.753 23.356 223.308 23.496 223.784 23.776C224.26 24.056 224.629 24.4807 224.89 25.05C225.152 25.6193 225.282 26.3473 225.282 27.234C225.282 28.1113 225.156 28.8393 224.904 29.418C224.652 29.9873 224.288 30.412 223.812 30.692C223.346 30.972 222.781 31.112 222.118 31.112ZM222.496 29.32C222.851 29.32 223.173 29.236 223.462 29.068C223.752 28.9 223.98 28.662 224.148 28.354C224.326 28.0367 224.414 27.6633 224.414 27.234C224.414 26.7953 224.326 26.422 224.148 26.114C223.98 25.806 223.752 25.568 223.462 25.4C223.173 25.232 222.851 25.148 222.496 25.148C222.132 25.148 221.806 25.232 221.516 25.4C221.227 25.568 220.994 25.806 220.816 26.114C220.648 26.422 220.564 26.7953 220.564 27.234C220.564 27.6633 220.648 28.0367 220.816 28.354C220.994 28.662 221.227 28.9 221.516 29.068C221.806 29.236 222.132 29.32 222.496 29.32ZM224.47 31V29.46L224.512 27.22L224.372 24.994V20.612H226.556V31H224.47ZM231.742 31.112C230.939 31.112 230.225 30.944 229.6 30.608C228.984 30.272 228.494 29.8147 228.13 29.236C227.775 28.648 227.598 27.9807 227.598 27.234C227.598 26.478 227.775 25.8107 228.13 25.232C228.494 24.644 228.984 24.1867 229.6 23.86C230.225 23.524 230.939 23.356 231.742 23.356C232.535 23.356 233.245 23.524 233.87 23.86C234.495 24.1867 234.985 24.6393 235.34 25.218C235.695 25.7967 235.872 26.4687 235.872 27.234C235.872 27.9807 235.695 28.648 235.34 29.236C234.985 29.8147 234.495 30.272 233.87 30.608C233.245 30.944 232.535 31.112 231.742 31.112ZM231.742 29.32C232.106 29.32 232.433 29.236 232.722 29.068C233.011 28.9 233.24 28.662 233.408 28.354C233.576 28.0367 233.66 27.6633 233.66 27.234C233.66 26.7953 233.576 26.422 233.408 26.114C233.24 25.806 233.011 25.568 232.722 25.4C232.433 25.232 232.106 25.148 231.742 25.148C231.378 25.148 231.051 25.232 230.762 25.4C230.473 25.568 230.239 25.806 230.062 26.114C229.894 26.422 229.81 26.7953 229.81 27.234C229.81 27.6633 229.894 28.0367 230.062 28.354C230.239 28.662 230.473 28.9 230.762 29.068C231.051 29.236 231.378 29.32 231.742 29.32ZM239.446 31.112C238.802 31.112 238.181 31.0373 237.584 30.888C236.996 30.7293 236.529 30.5333 236.184 30.3L236.912 28.732C237.257 28.9467 237.663 29.124 238.13 29.264C238.606 29.3947 239.072 29.46 239.53 29.46C240.034 29.46 240.388 29.3993 240.594 29.278C240.808 29.1567 240.916 28.9887 240.916 28.774C240.916 28.5967 240.832 28.466 240.664 28.382C240.505 28.2887 240.29 28.2187 240.02 28.172C239.749 28.1253 239.45 28.0787 239.124 28.032C238.806 27.9853 238.484 27.9247 238.158 27.85C237.831 27.766 237.532 27.6447 237.262 27.486C236.991 27.3273 236.772 27.1127 236.604 26.842C236.445 26.5713 236.366 26.2213 236.366 25.792C236.366 25.316 236.501 24.896 236.772 24.532C237.052 24.168 237.453 23.8833 237.976 23.678C238.498 23.4633 239.124 23.356 239.852 23.356C240.365 23.356 240.888 23.412 241.42 23.524C241.952 23.636 242.395 23.7993 242.75 24.014L242.022 25.568C241.658 25.3533 241.289 25.2087 240.916 25.134C240.552 25.05 240.197 25.008 239.852 25.008C239.366 25.008 239.012 25.0733 238.788 25.204C238.564 25.3347 238.452 25.5027 238.452 25.708C238.452 25.8947 238.531 26.0347 238.69 26.128C238.858 26.2213 239.077 26.296 239.348 26.352C239.618 26.408 239.912 26.4593 240.23 26.506C240.556 26.5433 240.883 26.604 241.21 26.688C241.536 26.772 241.83 26.8933 242.092 27.052C242.362 27.2013 242.582 27.4113 242.75 27.682C242.918 27.9433 243.002 28.2887 243.002 28.718C243.002 29.1847 242.862 29.6 242.582 29.964C242.302 30.3187 241.896 30.5987 241.364 30.804C240.841 31.0093 240.202 31.112 239.446 31.112Z" fill="#111111"/>
<line x1="161.1" y1="4" x2="161.1" y2="30" stroke="#111111" stroke-width="0.2"/>
<g clip-path="url(#clip0_49_627)">
<path d="M36.52 21.8367L36.5187 9.52036C36.5187 8.69277 35.859 8.02136 35.0483 8.02136C34.2363 8.02136 33.5752 8.69277 33.5752 9.52036L33.57 21.9261C33.57 21.9261 33.5869 22.6269 33.1263 22.8004C33.1263 22.8004 32.689 23.0487 32.067 22.4027L18.6574 9.02247C18.1968 8.54861 17.5162 8 16.4075 8C15.1401 8 14.276 8.8663 14.1134 9.03582L0.436957 23.3984C-0.270936 24.2154 0.0153442 25.0723 0.354977 25.4447C1.16307 26.335 2.19368 25.7651 2.25224 25.7277C5.56138 23.7615 11.9064 19.1684 24.6732 19.1831L29.7273 24.2674C30.132 24.6839 32.0423 26.6541 34.5147 25.5755C36.7672 24.5958 36.52 22.0529 36.52 21.8367ZM16.4439 10.9192L21.8742 16.4227C15.9846 16.432 10.0052 18.5023 8.55821 19.087L16.4439 10.9192Z" fill="#111111"/>
<path d="M67.3058 13.2391C67.3058 10.3559 65.0364 8.01868 62.2386 8.01868C62.2022 8.01868 45.7957 8.02535 45.7957 8.02535C42.7039 8.02535 40.4241 9.95817 40.4241 13.5568V24.3435C40.4241 25.1804 41.0838 25.8598 41.8932 25.8598C42.7052 25.8598 43.3663 25.1804 43.3663 24.3435V18.4569C50.1212 18.4569 57.3472 19.8772 64.823 25.5688C65.0689 25.7557 66.244 26.4618 67.026 25.5208C67.7235 24.6825 67.2668 23.7094 66.6409 23.1795C63.6883 20.6888 58.7708 18.4569 58.7708 18.4569H61.9966C64.7943 18.4583 67.3058 16.1237 67.3058 13.2391ZM43.3676 15.4202V13.5502C43.3715 12.8 43.6148 11.0567 45.797 11.0567C45.797 11.0567 62.0083 11.0527 62.0435 11.0527C63.2159 11.0527 64.3636 11.9537 64.3636 13.2405C64.3636 14.6821 63.2172 15.4269 62.0435 15.4269C62.007 15.4269 43.3676 15.4202 43.3676 15.4202Z" fill="#111111"/>
<path d="M118.461 8.02002L70.9311 8.02803C70.1191 8.02803 69.458 8.70078 69.458 9.52703C69.458 10.3546 70.1191 11.0247 70.9311 11.0247C70.9311 11.0247 82.2079 11.0153 82.2938 11.0153C85.4845 11.0153 85.9595 13.5341 85.9595 14.8583V24.3996C85.9595 25.2258 86.6179 25.8986 87.4312 25.8986C88.2406 25.8986 88.903 25.2271 88.903 24.3996V14.8583C88.903 12.0885 87.9816 11.0153 87.9816 11.0153H118.461C119.271 11.0153 119.933 10.3426 119.933 9.51635C119.933 8.69143 119.271 8.02002 118.461 8.02002Z" fill="#111111"/>
<path d="M118.462 22.9099L98.9724 22.8979C97.7727 22.8979 96.8943 21.8928 96.8943 20.7502C96.8943 19.6076 97.787 18.6051 98.9724 18.6051L118.458 18.6011C119.27 18.6011 119.931 17.931 119.931 17.1061C119.931 16.2812 119.27 15.6111 118.458 15.6111C118.458 15.6111 98.8696 15.6124 98.8306 15.6124C96.0953 15.6124 93.9014 17.9551 93.9014 20.7502C93.9014 23.5453 96.0719 25.8879 98.8306 25.8879L118.462 25.8985C119.271 25.8985 119.933 25.2298 119.933 24.4035C119.933 23.58 119.271 22.9099 118.462 22.9099Z" fill="#111111"/>
<path d="M149.648 22.9072L128.965 17.9844L149.902 10.9392C150.672 10.6829 151.1 9.83132 150.852 9.04378C150.604 8.25891 149.631 7.82509 148.861 8.08138L126.386 15.571V9.52965C126.386 8.7034 125.694 8.03065 124.882 8.03065C124.071 8.03065 123.376 8.70207 123.376 9.52965V14.2496C123.376 18.0525 124.597 20.0614 128.894 21.0064L149.112 25.8411C149.903 26.0213 150.643 25.5074 150.818 24.7012C150.992 23.8936 150.439 23.0874 149.648 22.9072Z" fill="#111111"/>
</g>
<defs>
<clipPath id="clip0_49_627">
<rect width="150.923" height="18" fill="white" transform="translate(0 8)"/>
</clipPath>
</defs>
</svg>
