<svg width="110" height="26" viewBox="0 0 110 26" fill="none" xmlns="http://www.w3.org/2000/svg">
<g clip-path="url(#clip0_66_1653)">
<path d="M14.1644 9.9167C12.5764 13.0236 10.8431 16.0506 9.19693 19.1248C9.15997 19.2157 9.0939 19.2918 9.00907 19.3411C8.92424 19.3904 8.82545 19.4102 8.72817 19.3973C8.19036 19.3973 7.63802 19.3755 7.11475 19.3973C6.84585 19.3973 6.77681 19.2992 6.75137 19.0594C6.29351 16.0264 5.82232 12.9921 5.33781 9.95667C5.32755 9.911 5.3142 9.86608 5.29784 9.82222C5.08708 9.88036 5.17793 10.0657 5.14159 10.1856C4.18953 13.1774 3.24473 16.1693 2.30721 19.1611C2.25633 19.3283 2.18729 19.401 2.00923 19.3973C1.35514 19.3973 0.704689 19.3973 -0.00390625 19.3973C0.094207 19.0921 0.177781 18.8232 0.264993 18.5543C1.63373 14.4045 3.00369 10.2571 4.37485 6.11209C4.4657 5.82502 4.57834 5.69056 4.90539 5.71237C5.41371 5.74144 5.92327 5.74144 6.43159 5.71237C6.70776 5.71237 6.7768 5.82138 6.79497 6.05395C7.19833 8.67393 7.61258 11.2903 8.01231 13.9103C8.15766 14.8514 8.27757 15.7999 8.41929 16.8173C8.67366 16.3268 8.89896 15.8907 9.14606 15.4583C10.8685 12.2896 12.5885 9.1221 14.3061 5.95583C14.3411 5.87071 14.4031 5.79942 14.4825 5.75283C14.5619 5.70624 14.6544 5.68693 14.7458 5.69783C15.253 5.72327 15.7611 5.72327 16.2684 5.69783C16.6753 5.66513 16.7698 5.79958 16.7444 6.19203C16.6208 8.187 16.5191 10.1892 16.4137 12.1769C16.2938 14.4771 16.1702 16.7774 16.0503 19.0812C16.0503 19.3247 15.9813 19.401 15.7342 19.3937C15.1818 19.3937 14.644 19.3719 14.0772 19.3937C13.7574 19.3937 13.6375 19.3501 13.6665 18.9795C13.8591 16.2177 14.0299 13.456 14.1971 10.6943C14.1971 10.4945 14.2152 10.291 14.2225 10.0875C14.2552 10.0148 14.3497 9.89853 14.1644 9.9167Z" fill="#111111"/>
<path d="M54.1738 19.3901C54.7952 16.1487 55.4057 12.9691 55.9907 9.78588C56.0452 9.50608 56.1543 9.40433 56.4486 9.4225C56.9392 9.44794 57.4334 9.4443 57.9276 9.4225C58.2255 9.4225 58.2691 9.53152 58.2183 9.78588C58.0802 10.4363 57.9494 11.0868 57.7931 11.8317C58.2365 11.1205 58.791 10.485 59.4356 9.9494C60.1714 9.37497 61.096 9.09748 62.0265 9.17177C63.2911 9.25171 64.0506 10.1202 64.0833 11.5156C64.1051 12.4676 63.8362 13.3761 63.6617 14.3027C63.371 15.8653 63.0585 17.4278 62.7715 18.9904C62.7133 19.2956 62.6116 19.4191 62.2773 19.401C61.6704 19.3683 61.0636 19.401 60.424 19.401C60.7074 17.8711 60.9872 16.3776 61.2598 14.8878C61.4124 14.0484 61.5796 13.2089 61.6958 12.3623C61.8376 11.3266 61.2162 10.8542 60.2423 11.2358C59.6792 11.4793 59.1966 11.8774 58.8506 12.3841C57.8404 13.7322 57.3462 15.2911 56.9573 16.9118C56.7793 17.6386 56.6521 18.3871 56.5176 19.1248C56.4849 19.3029 56.445 19.4119 56.2269 19.4082C55.5474 19.3828 54.8788 19.3901 54.1738 19.3901Z" fill="#111111"/>
<path d="M71.0882 16.9663C70.9428 17.7221 70.812 18.4198 70.6776 19.103C70.6485 19.2375 70.5177 19.2629 70.4087 19.2956C69.5413 19.5913 68.6183 19.6869 67.7087 19.5754C67.299 19.5455 66.9146 19.3661 66.6286 19.0713C66.3425 18.7765 66.1747 18.3869 66.1571 17.9765C66.0481 17.0644 66.3061 16.1923 66.4732 15.3166C66.7349 13.9393 67.0147 12.5621 67.2981 11.1377H65.543C65.6447 10.5999 65.7465 10.1202 65.8228 9.6369C65.8555 9.42613 65.9863 9.42977 66.1353 9.42977C66.5423 9.42977 66.9493 9.42977 67.3526 9.42977C67.5634 9.42977 67.6542 9.36799 67.6942 9.14997C67.8105 8.46317 67.9631 7.78728 68.0866 7.10412C68.123 6.90063 68.1848 6.76981 68.4173 6.71894C69.0387 6.58449 69.6565 6.42823 70.2706 6.26471C70.5576 6.1884 70.5504 6.32285 70.5104 6.52998C70.3396 7.38029 70.1834 8.23424 70.0017 9.07365C69.9435 9.34619 70.0017 9.43703 70.2851 9.43703C70.9247 9.41887 71.5606 9.43703 72.2001 9.43703C72.4509 9.43703 72.5344 9.48791 72.4654 9.75681C72.3769 10.1227 72.3137 10.4942 72.2764 10.8688C72.251 11.105 72.1347 11.1413 71.9349 11.1377C71.2517 11.1377 70.5685 11.1377 69.8854 11.1377C69.6855 11.1377 69.591 11.174 69.5474 11.4066C69.2204 13.1254 68.8643 14.8405 68.5445 16.5593C68.3228 17.7621 68.6499 18.0129 69.8272 17.6168C70.268 17.4422 70.6904 17.2243 71.0882 16.9663Z" fill="#111111"/>
<path d="M107.235 19.2484C106.311 20.4954 105.171 21.5672 103.87 22.4134C101.392 24.0739 98.5845 25.1796 95.6395 25.6548C94.5207 25.8864 93.3808 26.0008 92.2383 25.9964C92.2783 25.7275 92.5472 25.702 92.7143 25.5676C92.8815 25.4331 93.114 25.2987 93.3103 25.157C93.9272 24.7446 94.5039 24.2749 95.0327 23.7543C95.9137 22.9267 96.6778 21.983 97.3038 20.949C97.3718 20.8193 97.4879 20.7215 97.6272 20.6765C100.004 20.2186 102.384 19.7971 104.764 19.3537C105.418 19.2302 106.073 19.1091 106.73 18.9904C106.941 18.9577 107.217 18.8704 107.235 19.2484Z" fill="#F95000"/>
<path d="M41.694 16.7374C41.7849 17.3551 41.8721 17.9511 41.9666 18.5543C41.9957 18.736 41.8612 18.7796 41.7558 18.8414C41.155 19.2185 40.4831 19.4683 39.7817 19.5752C39.0804 19.682 38.3646 19.6438 37.6787 19.4628C36.1743 19.0594 35.3857 17.9765 35.2004 16.4867C34.837 13.6305 36.2688 10.8215 38.8342 9.66597C39.5569 9.32109 40.3468 9.13968 41.1475 9.13466C41.9483 9.12963 42.7404 9.30111 43.4674 9.6369C43.7871 9.77862 43.878 9.92761 43.6418 10.2401C43.4056 10.5526 43.1694 10.9669 42.9404 11.3303C42.8678 11.4465 42.8242 11.5338 42.6497 11.4356C40.8655 10.4145 38.7616 11.3303 37.9258 13.2526C37.5142 14.1548 37.3752 15.1577 37.5261 16.1378C37.7368 17.4605 38.5835 18.0129 39.8989 17.7004C40.2399 17.627 40.5664 17.4981 40.8655 17.3188C41.1017 17.1407 41.3743 16.9518 41.694 16.7374Z" fill="#111111"/>
<path d="M79.468 19.3646C79.1046 19.3646 78.6032 19.5064 78.4215 19.3247C78.2398 19.143 78.4723 18.656 78.5414 18.3072C79.3844 13.857 80.2323 9.40675 81.0851 4.95653C81.1323 4.70943 81.2159 4.59315 81.5029 4.59315C82.0262 4.61859 82.5495 4.61495 83.0728 4.59315C83.3816 4.59315 83.4143 4.67309 83.3598 4.95653C82.7203 8.22697 82.1025 11.4974 81.4739 14.7679C81.205 16.1887 80.9179 17.6059 80.6635 19.0303C80.6127 19.2992 80.5327 19.3937 80.2529 19.3937C79.9731 19.3937 79.7333 19.3937 79.4716 19.3937L79.468 19.3646Z" fill="#111111"/>
<path d="M31.243 11.6791C31.6535 11.0992 32.1117 10.5547 32.613 10.0512C32.982 9.67096 33.4474 9.39813 33.9594 9.26181C34.4714 9.12549 35.0108 9.13079 35.52 9.27715C35.7744 9.34619 35.8398 9.4334 35.7235 9.68777C35.4946 10.1856 35.2911 10.698 35.0985 11.2103C35.0258 11.3993 34.9386 11.4429 34.7351 11.3884C33.7903 11.1231 33.0563 11.5156 32.4422 12.1806C31.3993 13.3107 30.9269 14.7242 30.509 16.1778C30.2415 17.1251 30.0363 18.0889 29.8949 19.063C29.8549 19.3392 29.7532 19.4264 29.4806 19.4264C28.8556 19.4046 28.2342 19.4264 27.5547 19.4264C27.7364 18.4671 27.9181 17.5368 28.0852 16.6102C28.514 14.379 28.9501 12.1479 29.3716 9.9167C29.4334 9.57876 29.5388 9.41887 29.9239 9.45521C30.3727 9.48791 30.8233 9.48791 31.2721 9.45521C31.5846 9.45521 31.6827 9.52788 31.61 9.84766C31.501 10.4327 31.3702 11.0577 31.243 11.6791Z" fill="#111111"/>
<path d="M72.8945 19.3901C73.5159 16.1451 74.1264 12.9509 74.7441 9.75318C74.7878 9.52425 74.8677 9.40797 75.1366 9.4225C75.6889 9.44794 76.2267 9.4225 76.7936 9.4225C77.0335 9.4225 77.0843 9.48428 77.0371 9.72047C76.4315 12.8456 75.8258 15.9719 75.2202 19.0994C75.1802 19.2992 75.1184 19.401 74.8895 19.3937C74.2427 19.3828 73.5922 19.3901 72.8945 19.3901Z" fill="#111111"/>
<path d="M93.6399 2.59455C92.206 1.5813 90.597 0.84209 88.8941 0.414251C88.8033 0.392448 88.6616 0.359748 88.6943 0.236198C88.727 0.112648 88.8796 0.112645 88.9922 0.109012C89.9881 0.0267414 90.9878 0.00247604 91.9865 0.0363363C92.8077 0.0944774 93.629 0.119915 94.4466 0.247099C95.6548 0.375729 96.846 0.63151 98.0005 1.0102C98.054 1.02426 98.1088 1.03279 98.164 1.03564C98.2367 1.37722 97.9314 1.35541 97.7606 1.39902C96.6705 1.72606 95.6022 2.06038 94.512 2.35472C94.2361 2.48113 93.9416 2.56211 93.6399 2.59455Z" fill="#002079"/>
<path d="M104.425 4.08442C106.605 5.70874 108.28 7.71824 109.087 10.3564C109.106 10.4403 109.119 10.5252 109.127 10.6108C109.077 10.6816 109.012 10.7408 108.937 10.7841C108.861 10.8274 108.777 10.8538 108.691 10.8615C107.695 11.0505 106.7 11.2467 105.7 11.4066C105.554 11.4331 105.403 11.414 105.268 11.3521C105.13 11.2685 105.184 11.1522 105.213 11.0396C105.423 10.6929 105.6 10.328 105.744 9.94941C105.831 9.66233 105.918 9.37163 106.002 9.08455C106.056 8.88833 106.046 8.68483 106.086 8.48861C106.22 8.08162 106.038 7.68554 106.042 7.28218C105.997 7.034 105.929 6.79064 105.838 6.55542C105.752 6.28717 105.638 6.02891 105.497 5.78504C105.37 5.57065 105.221 5.36352 105.079 5.15639C104.99 4.99293 104.866 4.85138 104.716 4.74214C104.57 4.55681 104.352 4.42236 104.309 4.16436C104.319 4.10259 104.341 4.04808 104.425 4.08442Z" fill="#F9B320"/>
<path d="M93.3672 25.2296L92.2371 25.9964C91.9282 25.9964 92.0408 25.7311 91.9863 25.5712C93.5634 22.8676 95.0932 20.1386 96.634 17.4133C96.7248 17.2461 96.8302 17.0899 96.9283 16.93L97.9785 16.5194C98.2365 16.5739 98.251 16.5848 98.1384 16.8173C97.9313 17.2461 97.6878 17.6567 97.448 18.071C96.0744 20.4366 94.7299 22.8531 93.3672 25.2296Z" fill="#F9A31B"/>
<path d="M93.3678 25.2296C93.3614 25.0687 93.4087 24.9102 93.5022 24.779L96.9834 18.6778C97.3468 18.0383 97.7102 17.3878 98.0736 16.7483C98.1535 16.6102 98.1644 16.5412 97.9863 16.5194L99.2037 15.9161C99.2411 15.9416 99.2692 15.9786 99.2836 16.0215C99.3041 16.2675 99.2732 16.515 99.1928 16.7483C99.1663 16.8086 99.128 16.863 99.0801 16.9082C98.6501 17.4233 98.2875 17.9911 98.0009 18.5979C97.0512 20.2404 96.1125 21.8901 95.1847 23.5472C95.1374 23.6344 95.0611 23.7107 95.0829 23.8233C94.5702 24.3598 93.9943 24.832 93.3678 25.2296Z" fill="#F9AB1D"/>
<path d="M106.137 7.21677C106.192 7.65283 106.333 8.08526 106.184 8.52858C106.111 8.46187 106.019 8.41835 105.921 8.40349C105.823 8.38862 105.722 8.40306 105.632 8.44501C103.594 9.06276 101.544 9.65507 99.4946 10.2619C99.2911 10.3201 99.0549 10.4872 98.8805 10.1929C98.7933 9.90217 98.7061 9.6151 98.6152 9.32439C100.861 8.67515 103.103 8.01864 105.341 7.35486C105.586 7.22745 105.864 7.17919 106.137 7.21677Z" fill="#005DA7"/>
<path d="M99.1152 16.781C99.1302 16.5098 99.1654 16.2402 99.2206 15.9743C99.2587 15.9412 99.3033 15.9165 99.3514 15.9016C100.889 15.6981 102.404 15.3747 103.93 15.1022C105.569 14.8115 107.2 14.4808 108.847 14.2083C109.326 14.1319 109.366 14.1792 109.319 14.6225C109.294 14.7679 109.352 14.9314 109.235 15.0586C106.51 15.5528 103.785 16.0615 101.067 16.5521C100.583 16.6429 100.104 16.7592 99.6131 16.8246C99.4532 16.8464 99.2715 16.9154 99.1152 16.781Z" fill="#F98310"/>
<path d="M98.873 10.1674C98.9352 10.2025 99.0052 10.2209 99.0765 10.2209C99.1478 10.2209 99.2179 10.2025 99.28 10.1674C101.414 9.52788 103.549 8.8956 105.683 8.27058C105.89 8.21244 106.224 8.00531 106.184 8.51041C106.21 8.71296 106.181 8.91867 106.101 9.10636C105.985 9.21661 105.842 9.29433 105.686 9.33166C103.676 9.9276 101.665 10.5163 99.6543 11.0977C99.4763 11.1486 99.2909 11.2503 99.1165 11.0977L98.873 10.1674Z" fill="#0065AD"/>
<path d="M99.1163 16.781L105.061 15.6908L108.968 14.9641C109.016 14.9468 109.069 14.9463 109.118 14.9628C109.167 14.9793 109.208 15.0117 109.236 15.0549C109.237 15.2893 109.17 15.5189 109.044 15.7163C105.89 16.2977 102.732 16.8827 99.5741 17.4496C99.4719 17.4867 99.3633 17.5029 99.2547 17.4973C99.1461 17.4916 99.0397 17.4643 98.9418 17.4169C98.771 17.2025 98.8982 17.0317 99.029 16.8646L99.1163 16.781Z" fill="#F97B0E"/>
<path d="M107.234 19.2484C107.158 19.0703 107.042 19.0521 106.849 19.0885C104.332 19.573 101.813 20.0454 99.2907 20.5057C98.7093 20.6147 98.1243 20.691 97.5429 20.7818C97.5326 20.6274 97.5655 20.4731 97.6381 20.3364C97.7106 20.1997 97.8198 20.0859 97.9535 20.0078C99.8467 19.5936 101.762 19.2811 103.666 18.9177C104.818 18.6996 105.97 18.478 107.125 18.2854C107.265 18.2493 107.41 18.2382 107.554 18.2527C107.678 18.2781 107.83 18.3036 107.743 18.4962C107.554 18.7396 107.496 19.063 107.234 19.2484Z" fill="#F95802"/>
<path d="M105.563 5.73781C105.743 5.96269 105.867 6.22653 105.927 6.50818C105.927 6.79161 105.698 6.80978 105.516 6.87156C103.808 7.36939 102.1 7.88176 100.389 8.37596C99.9164 8.51041 99.4513 8.66667 98.9752 8.79022C98.7972 8.83746 98.6118 8.9283 98.4338 8.79022C98.3502 8.58672 98.263 8.38323 98.1758 8.17974C98.263 7.95444 98.4774 7.929 98.67 7.87086C100.756 7.24948 102.849 6.64626 104.938 6.03215C105.159 5.96147 105.369 5.86253 105.563 5.73781Z" fill="#0054A0"/>
<path d="M105.562 5.73781C105.602 5.99581 105.387 6.01034 105.235 6.05395C102.996 6.70803 100.758 7.35122 98.5194 8.00168C98.3947 8.04636 98.2732 8.09979 98.156 8.16156L97.8145 7.46387C97.8871 7.27128 98.0725 7.24584 98.236 7.1986L104.323 5.4144C104.602 5.33886 104.873 5.23284 105.129 5.09825C105.319 5.27686 105.467 5.49528 105.562 5.73781Z" fill="#004E9C"/>
<path d="M91.7169 24.7972L91.3535 24.0123C91.9095 23.3691 92.222 22.5842 92.6508 21.8647C93.5011 20.4366 94.2824 18.9831 95.0927 17.5659C95.3379 17.4325 95.6049 17.3439 95.8813 17.3043C96.1465 17.3588 96.1865 17.4387 96.0302 17.7258C95.7977 18.1582 95.5615 18.587 95.3035 19.0158C94.2351 20.8545 93.2104 22.7187 92.1312 24.5537C92.0766 24.6918 92.0439 25.0552 91.7169 24.7972Z" fill="#F99A18"/>
<path d="M108.445 17.3079C108.401 17.4994 108.31 17.6769 108.18 17.8239C107.271 18.0746 106.334 18.1873 105.411 18.3544C103.278 18.7614 101.145 19.1466 99.008 19.5318C98.7602 19.6227 98.487 19.6149 98.2449 19.51C98.0777 19.1793 98.2449 18.9686 98.5029 18.7832C101.624 18.2527 104.728 17.6386 107.842 17.0862C107.968 17.0489 108.099 17.0329 108.231 17.039C108.376 17.0644 108.539 17.0826 108.445 17.3079Z" fill="#F96507"/>
<path d="M103.051 3.18323C103.282 3.28807 103.486 3.44184 103.651 3.63382C103.833 3.76464 103.803 3.89546 103.651 3.9972C103.5 4.08632 103.338 4.15246 103.168 4.19343C101.23 4.75304 99.2915 5.32113 97.3535 5.8977C97.1645 5.9522 96.9901 5.98854 96.8411 5.81048C96.663 5.57792 96.4777 5.34898 96.3105 5.11642C98.4908 4.52047 100.671 3.85549 102.851 3.20503C102.917 3.19316 102.984 3.18588 103.051 3.18323Z" fill="#003D8F"/>
<path d="M105.309 11.0468L105.207 11.2939C105.207 11.5919 104.942 11.7445 104.815 11.9698C104.725 12.0677 104.615 12.1436 104.491 12.1915C102.936 12.6929 101.355 13.1217 99.7926 13.5905C99.6508 13.6305 99.5091 13.6741 99.3819 13.5614C99.3148 13.2181 99.2891 12.868 99.3056 12.5185C101.144 11.9662 102.99 11.4284 104.836 10.8942C105 10.847 105.232 10.7452 105.309 11.0468Z" fill="#0075BA"/>
<path d="M91.7168 24.7972C91.8912 24.8953 91.9348 24.7645 92.0002 24.6446C93.3351 22.3238 94.6566 19.9981 95.9647 17.6677C96.0301 17.5477 96.19 17.3733 95.8957 17.3043L96.9277 16.9409C96.8662 17.3095 96.7111 17.6561 96.4771 17.9475C95.2888 20.0732 94.0751 22.1845 92.8724 24.2994C92.6652 24.6628 92.4472 25.0261 92.2437 25.3895C92.1819 25.4985 92.1165 25.5821 91.9857 25.5894L91.7168 24.7972Z" fill="#F99E19"/>
<path d="M105.307 11.0468C105.126 10.8506 104.944 10.9814 104.744 11.0468C103.113 11.5301 101.474 12.0243 99.8421 12.5004C99.6786 12.5476 99.4787 12.6675 99.3043 12.5294L99.2207 11.8317C99.3538 11.6761 99.5381 11.5731 99.7403 11.541C101.579 10.9923 103.425 10.4509 105.271 9.92034C105.449 9.86583 105.696 9.69141 105.831 10.0148C105.728 10.3907 105.55 10.7418 105.307 11.0468Z" fill="#006EB4"/>
<path d="M103.051 3.18323C102.948 3.30677 102.801 3.38606 102.641 3.40489L98.9087 4.49504C98.1819 4.7058 97.4552 4.90566 96.7575 5.13096C96.6101 5.18746 96.447 5.18746 96.2996 5.13096C96.1267 4.98386 95.9804 4.80808 95.8672 4.61132C95.958 4.38966 96.1761 4.37512 96.365 4.31698C97.9348 3.85549 99.4974 3.38672 101.067 2.93613C101.388 2.84434 101.699 2.72268 101.997 2.57275C102.379 2.71839 102.735 2.92452 103.051 3.18323Z" fill="#00388A"/>
<path d="M108.88 16.2723C108.873 16.433 108.814 16.5872 108.713 16.712C105.573 17.2243 102.455 17.8675 99.3192 18.4053C99.2112 18.4473 99.0952 18.4648 98.9796 18.4567C98.864 18.4485 98.7516 18.4148 98.6506 18.3581C98.6003 18.2664 98.5827 18.1605 98.6005 18.0575C98.6183 17.9545 98.6706 17.8606 98.7487 17.7912C99.1653 17.6203 99.6074 17.5196 100.057 17.4932C102.826 16.9954 105.588 16.4539 108.36 15.9779C108.46 15.9575 108.56 15.9441 108.662 15.9379C108.902 15.9343 108.967 16.0542 108.88 16.2723Z" fill="#F9700A"/>
<path d="M101.998 2.57638C101.976 2.80168 101.787 2.82348 101.635 2.87072L96.4093 4.426C96.2276 4.47687 96.0459 4.54591 95.8787 4.60769L95.1992 3.90272C95.737 3.53934 96.3838 3.46667 96.9834 3.27771C98.2989 2.85982 99.6397 2.51097 100.959 2.08581C101.332 2.18431 101.685 2.3506 101.998 2.57638Z" fill="#003186"/>
<path d="M76.4263 5.30538C76.7632 5.30201 77.0886 5.42845 77.3348 5.65847C77.5811 5.8885 77.7294 6.20447 77.749 6.54088C77.7348 6.88531 77.586 7.21041 77.3345 7.44622C77.0831 7.68204 76.7491 7.80973 76.4045 7.80182C76.0668 7.8043 75.741 7.67718 75.4943 7.44666C75.2475 7.21613 75.0986 6.89975 75.0781 6.56269C75.0932 6.21825 75.243 5.89352 75.4951 5.65838C75.7473 5.42324 76.0816 5.29648 76.4263 5.30538Z" fill="#111111"/>
<path d="M109.4 12.0788C109.527 12.6876 109.527 13.316 109.4 13.9248C109.361 13.8959 109.331 13.857 109.312 13.8122C109.275 13.6736 109.259 13.5303 109.265 13.387C109.265 13.06 109.087 13.0236 108.84 13.0818C108.259 13.198 107.674 13.3143 107.089 13.4233C105.824 13.6632 104.545 13.8594 103.288 14.1501C103.021 14.23 102.737 14.23 102.47 14.1501C102.288 13.9793 102.47 13.8994 102.572 13.8231C102.77 13.6619 102.961 13.4909 103.142 13.3107C103.301 13.1731 103.491 13.0748 103.695 13.0236C105.413 12.7402 107.118 12.3877 108.829 12.0934C109.012 12.0235 109.213 12.0184 109.4 12.0788Z" fill="#F99A18"/>
<path d="M98.2333 19.4737C98.8814 19.4563 99.5252 19.3636 100.152 19.1975C102.332 18.8159 104.473 18.4053 106.635 17.9983C107.063 17.9546 107.488 17.8744 107.903 17.7585C107.949 17.7354 108.002 17.7293 108.053 17.7412C108.103 17.7532 108.148 17.7824 108.179 17.8239C108.088 18.0809 107.939 18.3134 107.743 18.5034C107.696 18.289 107.532 18.3399 107.38 18.3653L102.975 19.1902L98.1678 20.0732C98.0808 20.0805 97.9933 20.0805 97.9062 20.0732C97.8799 19.9507 97.8984 19.8228 97.9584 19.7127C98.0184 19.6027 98.116 19.5179 98.2333 19.4737Z" fill="#F95E04"/>
<path d="M95.0934 17.5659C95.1915 17.6386 95.1406 17.7003 95.0934 17.7839C93.9548 19.7946 92.8125 21.8078 91.6667 23.8233C91.6013 23.9433 91.5649 24.1177 91.3614 24.005L90.998 23.3945C91.4668 22.4389 92.0446 21.5413 92.557 20.6074C92.9688 19.8637 93.3891 19.1248 93.8179 18.3908C93.9178 18.2467 93.9581 18.0697 93.9305 17.8966C94.3077 17.7524 94.6968 17.6418 95.0934 17.5659Z" fill="#F99416"/>
<path d="M98.677 18.3472C99.7998 18.2636 100.894 17.9838 101.998 17.8057C103.968 17.4641 105.93 17.079 107.9 16.7447C108.161 16.6974 108.434 16.4612 108.714 16.7119C108.677 16.9304 108.584 17.1356 108.445 17.3079C108.423 17.1262 108.299 17.1226 108.158 17.148L103.375 18.0456C101.907 18.3217 100.439 18.5931 98.9713 18.8595C98.8129 18.8723 98.6537 18.8723 98.4953 18.8595C98.3899 18.6197 98.4008 18.4416 98.677 18.3472Z" fill="#F96B08"/>
<path d="M98.4219 8.77205C99.4284 8.57582 100.391 8.22334 101.376 7.94717C102.732 7.56199 104.087 7.16226 105.439 6.76254C105.613 6.71167 105.824 6.7153 105.915 6.50817C106.038 6.73256 106.113 6.98 106.136 7.23494C103.956 7.87086 101.805 8.51405 99.6319 9.1318C99.3049 9.22264 98.9924 9.49518 98.6072 9.31712L98.4219 8.77205Z" fill="#0059A3"/>
<path d="M104.346 4.15709L104.782 4.69489C104.855 5.05828 104.538 5.05828 104.349 5.09825C103.125 5.46163 101.904 5.82501 100.676 6.1884L98.0448 6.95877C97.8813 7.00601 97.7105 7.08595 97.547 6.95877C97.3958 6.77607 97.2733 6.57145 97.1836 6.35192C98.2192 5.9413 99.3057 5.69783 100.37 5.37442C101.435 5.05101 102.551 4.7167 103.641 4.40782C103.836 4.34871 104.022 4.26572 104.197 4.16073C104.218 4.14503 104.244 4.13627 104.271 4.13562C104.297 4.13497 104.324 4.14246 104.346 4.15709Z" fill="#004695"/>
<path d="M105.831 10.0039C105.62 9.79678 105.413 10.0039 105.231 10.0402C103.225 10.6217 101.234 11.2249 99.2206 11.8208C99.1511 11.5948 99.1156 11.3596 99.1152 11.1231C100.184 10.8215 101.252 10.5236 102.317 10.2183C103.576 9.85735 104.837 9.49397 106.099 9.12816C106.061 9.43345 105.97 9.72977 105.831 10.0039Z" fill="#006AB1"/>
<path d="M93.9415 17.8929C94.2431 17.9438 94.0905 18.1146 94.0251 18.2563C93.6072 19.0158 93.1857 19.7753 92.7532 20.5311C92.2518 21.4068 91.7394 22.279 91.2343 23.1547C91.1762 23.2528 91.1326 23.3655 91.009 23.4091L90.5039 22.7114C91.0708 21.683 91.6595 20.6728 92.23 19.6517C92.4189 19.3101 92.6224 18.9758 92.8077 18.6342C92.8541 18.5691 92.887 18.4954 92.9045 18.4174C92.922 18.3394 92.9237 18.2587 92.9095 18.18C93.2418 18.0465 93.588 17.9502 93.9415 17.8929Z" fill="#F98E14"/>
<path d="M109.388 13.8231V13.9284C109.412 14.1634 109.382 14.4008 109.301 14.6225C109.301 14.3609 109.275 14.2591 108.937 14.3173C107.528 14.608 106.11 14.8478 104.693 15.1094C103.109 15.4001 101.525 15.7017 99.9402 15.9816C99.7093 16.0033 99.4769 16.0033 99.2461 15.9816C99.6109 15.5803 100.102 15.3162 100.638 15.233C101.385 15.1573 102.126 15.0359 102.858 14.8696C104.839 14.5062 106.823 14.161 108.796 13.7795C108.89 13.7354 108.994 13.7162 109.098 13.7238C109.201 13.7315 109.301 13.7656 109.388 13.8231Z" fill="#F98912"/>
<path d="M104.262 4.14982C104.236 4.37512 104.047 4.39329 103.898 4.44053C102.052 4.9856 100.206 5.53068 98.3529 6.06485C97.9895 6.17386 97.6262 6.42823 97.1974 6.34102C97.0467 6.19045 96.9237 6.01456 96.834 5.82138C96.9069 5.85251 96.9858 5.86703 97.065 5.86389C97.1442 5.86075 97.2217 5.84002 97.2918 5.80321L102.99 4.13529C103.168 4.08442 103.353 4.01901 103.524 3.96087C103.695 3.90273 103.753 3.79734 103.655 3.63382C103.796 3.63382 103.865 3.76464 103.978 3.82278C104.091 3.88092 104.265 3.9536 104.262 4.14982Z" fill="#004292"/>
<path d="M97.5469 6.94787C98.419 6.70077 99.2911 6.4573 100.16 6.22111C101.515 5.82865 102.87 5.43983 104.222 5.03284C104.426 4.9747 104.698 4.99287 104.782 4.70943C104.949 4.79339 105.079 4.93741 105.145 5.11279C105.145 5.17765 105.122 5.24045 105.081 5.29072C105.04 5.34098 104.983 5.37565 104.92 5.38896L99.8325 6.87519C99.1712 7.07142 98.5098 7.27855 97.8485 7.47841L97.5469 6.94787Z" fill="#004A98"/>
<path d="M108.88 16.2723C108.88 16.1087 108.88 16.0106 108.633 16.0579C107.433 16.2904 106.223 16.4976 105.02 16.712C103.433 16.999 101.845 17.2716 100.26 17.5732C99.766 17.6676 99.2754 17.773 98.7703 17.8275C98.6831 17.624 98.694 17.4642 98.9411 17.3915C99.8994 17.2845 100.852 17.1281 101.794 16.9227C103.691 16.5593 105.591 16.2468 107.488 15.9052C107.815 15.8471 108.135 15.7563 108.458 15.6872C108.553 15.6518 108.653 15.6364 108.754 15.642C108.855 15.6476 108.953 15.6742 109.043 15.7199C108.872 15.8689 109.076 16.1269 108.88 16.2723Z" fill="#F9760C"/>
<path d="M94.7293 3.47394C94.5031 3.32939 94.2966 3.15592 94.1152 2.95793C94.3238 2.75566 94.5933 2.62793 94.882 2.59455C95.9721 2.2675 97.0623 1.95136 98.1524 1.62795C98.4384 1.58974 98.7086 1.47415 98.9337 1.29364C99.3915 1.29364 99.744 1.59888 100.155 1.73333C100.242 1.97316 100.038 2.00224 99.9039 2.04584C98.2796 2.54004 96.6335 3.00154 95.0201 3.49937C94.9234 3.52747 94.8197 3.5184 94.7293 3.47394Z" fill="#00297F"/>
<path d="M90.8312 18.6197C91.257 18.4873 91.6954 18.3996 92.1394 18.3581C92.332 18.2709 92.3756 18.3799 92.361 18.5361C92.3421 18.6517 92.2987 18.762 92.2339 18.8595C91.6452 19.8879 91.0638 20.9163 90.4715 21.9446C90.3879 22.09 90.3152 22.308 90.0572 22.1917L89.4395 21.5849C89.8028 20.7201 90.3479 19.9569 90.784 19.1321C90.8748 18.9467 90.9766 18.7941 90.8312 18.6197Z" fill="#F98411"/>
<path d="M90.8317 18.6197C90.9879 18.6197 91.1951 18.6524 91.057 18.8559C90.5661 19.7932 90.0263 20.7041 89.4399 21.5849L88.4043 20.8C88.7095 20.353 88.9639 19.8734 89.2401 19.4082C89.3527 19.2157 89.4036 19.0449 89.1819 18.8886C89.7239 18.7557 90.2756 18.6658 90.8317 18.6197Z" fill="#F97B0E"/>
<path d="M103.626 13.1181C103.459 13.1581 103.394 13.3652 103.212 13.3761C102.568 13.5164 101.931 13.6899 101.304 13.8957C100.694 14.1083 100.067 14.2688 99.4292 14.3754L99.3711 14.3427V13.5651L102.725 12.6094L104.542 12.0788C104.551 12.128 104.55 12.1786 104.539 12.2274C104.528 12.2762 104.506 12.3221 104.477 12.3623C104.253 12.6748 103.963 12.9331 103.626 13.1181Z" fill="#007BBD"/>
<path d="M94.7305 3.47394C96.4263 2.97247 98.122 2.46858 99.8178 1.96226C99.9414 1.92593 100.127 1.94046 100.152 1.7406C100.461 1.7406 100.672 1.97317 100.937 2.08581C100.817 2.42739 100.479 2.34745 100.239 2.42376C98.6296 2.92159 97.0089 3.39762 95.3918 3.87728C95.3212 3.89156 95.2495 3.90007 95.1774 3.90272L94.7305 3.47394Z" fill="#002D82"/>
<path d="M103.625 13.1181C103.887 12.8456 104.148 12.5767 104.414 12.3078C105.896 11.9989 107.386 11.7409 108.88 11.4756C109.152 11.4284 109.381 11.4574 109.381 11.8172L109.399 12.0825C108.367 12.2823 107.339 12.4931 106.307 12.6857C105.58 12.8274 104.831 12.94 104.097 13.0818C103.942 13.1117 103.783 13.1239 103.625 13.1181Z" fill="#F9A31B"/>
<path d="M90.0566 22.1772C90.3401 22.1772 90.3619 21.8938 90.46 21.723C91.0438 20.7201 91.6168 19.7111 92.1788 18.696C92.2333 18.5979 92.4586 18.4199 92.1388 18.3326C92.3859 18.2371 92.6453 18.1772 92.9092 18.1546C93.08 18.18 93.1381 18.2636 93.0473 18.4235C92.2648 19.785 91.4799 21.1476 90.6926 22.5115C90.6385 22.5787 90.5748 22.6374 90.5036 22.686L90.0566 22.1772Z" fill="#F98912"/>
<path d="M98.9416 1.30091C99.0651 1.57344 98.818 1.54437 98.6981 1.58071C97.4735 1.9441 96.2489 2.30748 95.0243 2.67086L94.1158 2.94703L93.6289 2.58365C94.3557 2.16212 95.1878 2.07855 95.9618 1.80965C96.5759 1.59525 97.2119 1.44626 97.8296 1.25367C97.9532 1.21733 98.1385 1.22823 98.1566 1.02474C98.4655 0.992035 98.6545 1.28637 98.9416 1.30091Z" fill="#00257C"/>
<path d="M104.76 11.9008L105.207 11.2939C106.213 11.2721 107.184 10.9887 108.168 10.8215C108.492 10.767 108.808 10.6762 109.128 10.6035C109.233 10.819 109.291 11.0543 109.298 11.2939C108.252 11.4247 107.22 11.6573 106.184 11.839C105.723 11.9262 105.247 12.1479 104.76 11.9008Z" fill="#F9AD1E"/>
<path d="M89.1819 18.8704C89.4798 18.8486 89.607 18.9358 89.4362 19.2338C89.171 19.6953 88.9093 20.1641 88.6477 20.6292C88.6245 20.6739 88.5896 20.7113 88.5467 20.7376C88.5038 20.7638 88.4545 20.7779 88.4042 20.7782L87.5176 20.2622C87.6041 20.0048 87.7357 19.7648 87.9064 19.5536C88.0663 19.2956 88.019 19.1502 87.7647 19.0303C88.2312 18.9337 88.7056 18.8802 89.1819 18.8704Z" fill="#F9720B"/>
<path d="M104.76 11.9008C105.752 11.9008 106.696 11.5774 107.667 11.4247C108.106 11.3557 108.546 11.2903 108.975 11.1849C109.034 11.164 109.098 11.1633 109.157 11.1831C109.216 11.2028 109.267 11.2418 109.302 11.2939C109.371 11.4592 109.4 11.6386 109.385 11.8172C109.291 11.5701 109.131 11.5447 108.877 11.5955C107.467 11.8681 106.05 12.1152 104.636 12.3804C104.538 12.3804 104.465 12.4059 104.418 12.3078L104.542 12.0788L104.76 11.9008Z" fill="#F9A81C"/>
<path d="M100.588 15.2839L99.2621 15.9816H99.2403C99.2407 15.9706 99.2386 15.9596 99.2342 15.9496C99.2298 15.9395 99.2232 15.9305 99.2148 15.9234L99.3893 14.3463C99.5891 14.7933 99.5855 14.7897 100.065 14.6516C100.545 14.5135 100.955 14.3899 101.402 14.2882C101.584 14.241 101.802 14.1283 101.933 14.3936C101.897 14.637 101.631 14.6625 101.511 14.826C101.21 14.9859 100.963 15.2548 100.588 15.2839Z" fill="#0184C4"/>
<path d="M86.7367 19.9133L85.0905 19.4809C85.0033 19.4591 84.9125 19.4482 84.9161 19.3356C84.9198 19.2229 85.0215 19.2302 85.1051 19.212C85.615 19.137 86.1308 19.109 86.6458 19.1284C86.8566 19.0776 87.1437 18.994 87.2454 19.1648C87.3471 19.3356 87.1509 19.6154 87.0237 19.8225C86.9656 19.9206 86.8748 20.0006 86.7367 19.9133Z" fill="#F96408"/>
<path d="M86.7354 19.9133C87.0697 19.7825 87.0552 19.4373 87.2223 19.1866C87.0152 19.0848 86.8262 19.1539 86.6445 19.1284C87.0109 19.0498 87.3858 19.0181 87.7601 19.034C88.2725 19.063 88.2725 19.063 88.0218 19.5245C87.9107 19.8029 87.7365 20.0517 87.513 20.2513L86.7354 19.9133Z" fill="#F96A09"/>
<path d="M104.262 4.14982L103.975 3.82278C104.193 3.78644 104.283 3.97903 104.425 4.07715L104.345 4.15709L104.262 4.14982Z" fill="#ECB93B"/>
<path d="M14.1641 9.9167C14.1641 9.84403 14.2585 9.74228 14.2803 9.77498C14.3066 9.82526 14.3172 9.88227 14.3107 9.93863C14.3043 9.99499 14.281 10.0481 14.244 10.0911C14.2476 9.97121 14.2367 9.89853 14.1641 9.9167Z" fill="white"/>
<path d="M53.0649 9.53515C52.3361 9.34161 51.59 9.2199 50.8374 9.17177C48.9406 9.05185 47.2399 9.51335 45.87 10.8942C44.1367 12.6493 43.5916 14.8151 43.806 17.1952C43.8311 17.7443 44.0333 18.2705 44.3825 18.6949C44.7316 19.1194 45.2089 19.4194 45.7428 19.55C46.2396 19.6631 46.7561 19.6562 47.2497 19.5298C47.7433 19.4034 48.1996 19.1612 48.5808 18.8232C49.0632 18.3837 49.4783 17.8756 49.8127 17.3152C49.8381 17.2679 49.8563 17.1843 49.8926 17.1771C50.0053 17.1516 49.9762 17.257 49.9653 17.3079C49.9454 17.3994 49.9186 17.4893 49.8854 17.5768C49.8199 18.0928 49.7582 18.6088 49.6782 19.1248C49.6419 19.3501 49.7218 19.3973 49.929 19.3937C50.4777 19.3937 51.0191 19.3937 51.5824 19.3937C51.8331 19.3937 51.8876 19.3174 51.9021 19.0776C51.9736 18.0702 52.1046 17.0679 52.2946 16.076C52.658 14.0883 53.0431 12.097 53.4429 10.1129C53.5228 9.72411 53.3993 9.60783 53.0649 9.53515ZM50.9246 11.3339C50.6594 13.1508 50.1688 14.866 49.1077 16.3776C48.7466 16.9804 48.1862 17.438 47.5234 17.6713C47.3759 17.7343 47.2154 17.7606 47.0555 17.748C46.8956 17.7354 46.7412 17.6842 46.6054 17.5988C46.4697 17.5134 46.3566 17.3964 46.276 17.2577C46.1954 17.1191 46.1496 16.963 46.1425 16.8028C46.1031 16.4979 46.0813 16.1909 46.0771 15.8834C46.1752 14.3136 46.5386 12.9255 47.6469 11.8317C48.5081 10.9814 49.5438 10.7888 50.6957 10.9959C50.9065 11.0432 50.9537 11.1231 50.9246 11.3194V11.3339Z" fill="#111111"/>
<path d="M20.9641 15.491C21.7722 15.4115 22.5713 15.2582 23.3515 15.0331C24.4889 14.7134 25.5827 14.3064 26.4293 13.4197C27.5558 12.246 27.4759 9.82949 25.2229 9.29169C24.2292 9.0508 23.1851 9.12574 22.2359 9.50608C19.3288 10.6398 17.9698 13.8667 18.3114 16.5412C18.5003 18.0165 19.2816 19.063 20.7424 19.4482C21.5317 19.6519 22.3553 19.6854 23.1585 19.5463C23.9617 19.4072 24.7261 19.0988 25.401 18.6415C25.4775 18.6025 25.5377 18.5377 25.5709 18.4585C25.6042 18.3794 25.6083 18.291 25.5827 18.2091C25.4845 17.6531 25.401 17.0935 25.3029 16.4685C24.6336 17.0377 23.8507 17.4577 23.0063 17.7004C21.5964 18.0637 20.677 17.4024 20.5643 15.9816C20.528 15.669 20.6007 15.5237 20.9641 15.491ZM22.8101 11.1304C23.2005 10.9336 23.6418 10.8613 24.0746 10.9233C24.845 11.0214 25.1648 11.5883 24.8014 12.2969C24.5567 12.7462 24.158 13.0921 23.6785 13.2707C22.7249 13.6812 21.7138 13.9423 20.6806 14.0447C21.0476 12.8056 21.6073 11.7336 22.781 11.1377L22.8101 11.1304Z" fill="#111111"/>
<path d="M98.9416 17.3915C98.8435 17.5172 98.7842 17.6687 98.7708 17.8275C98.7417 17.9983 98.709 18.1909 98.6763 18.3472C98.5655 18.4985 98.5022 18.6794 98.4946 18.8668C98.3494 19.0389 98.2584 19.25 98.233 19.4737L97.9059 20.0878L97.5425 20.7818C96.8785 21.9095 96.0534 22.9341 95.0934 23.8233C94.9298 23.6344 95.0934 23.4927 95.1769 23.3582C95.9618 21.958 96.7528 20.5626 97.5498 19.1721C97.9132 18.5071 98.3093 17.8421 98.7017 17.1843C98.778 17.0608 98.8326 16.8827 99.0288 16.8682L98.9416 17.3915Z" fill="#F9AF1F"/>
<path d="M101.445 14.7679C101.493 14.5171 101.787 14.5789 101.9 14.4045C101.944 14.3023 102.019 14.2161 102.113 14.1576C102.208 14.0992 102.319 14.0712 102.43 14.0774C103.306 14.1029 104.131 13.8158 104.974 13.6704C106.304 13.4415 107.634 13.2017 108.971 12.9437C109.422 12.8528 109.44 13.0636 109.403 13.387C109.262 13.5366 109.068 13.6252 108.862 13.6341C106.638 14.0375 104.414 14.4517 102.19 14.8587C101.936 14.9059 101.671 14.9859 101.445 14.7679Z" fill="#F99215"/>
<path d="M101.446 14.7679C102.278 14.8115 103.07 14.5535 103.877 14.4045C105.581 14.1101 107.278 13.7795 108.964 13.4633C109.106 13.4379 109.248 13.4052 109.389 13.3761V13.8122C108.631 13.8984 107.879 14.0282 107.136 14.201L102.412 15.0331C101.915 15.124 101.424 15.233 100.93 15.3384C100.799 15.3674 100.675 15.411 100.566 15.273L101.446 14.7679Z" fill="#F98E14"/>
<path d="M102.431 14.0847L101.9 14.4117C101.788 14.1973 101.61 14.3318 101.482 14.3645C100.981 14.488 100.487 14.637 99.9962 14.7897C99.3676 14.9859 99.3676 14.9932 99.3858 14.3463C100.58 13.9951 101.773 13.6402 102.965 13.2816C102.987 13.2703 103.012 13.2637 103.037 13.2624C103.061 13.2611 103.086 13.265 103.11 13.2739C103.133 13.2828 103.154 13.2965 103.172 13.3141C103.189 13.3317 103.203 13.3528 103.212 13.3761C102.975 13.6366 102.713 13.8738 102.431 14.0847Z" fill="#0180C1"/>
</g>
<defs>
<clipPath id="clip0_66_1653">
<rect width="109.498" height="26" fill="white"/>
</clipPath>
</defs>
</svg>
